<svg width="16" height="17" viewBox="0 0 16 17" fill="none" xmlns="http://www.w3.org/2000/svg">
<path d="M9.86642 12.2947H8.63158V8.13727C8.63158 8.06177 8.57159 8 8.49827 8H7.4984C7.42508 8 7.36509 8.06177 7.36509 8.13727V12.2947H6.13358C6.02193 12.2947 5.96027 12.4268 6.0286 12.516L7.89501 14.9473C7.90748 14.9637 7.92342 14.977 7.94161 14.9861C7.9598 14.9953 7.97977 15 8 15C8.02023 15 8.0402 14.9953 8.05839 14.9861C8.07658 14.977 8.09252 14.9637 8.10499 14.9473L9.9714 12.516C10.0397 12.4268 9.97807 12.2947 9.86642 12.2947Z" fill="#A2A6B6"/>
<path d="M12.6781 6.445C11.9625 4.43167 10.1391 3 8.00313 3C5.86719 3 4.04375 4.43 3.32812 6.44333C1.98906 6.81833 1 8.12 1 9.66667C1 11.5083 2.39844 13 4.12344 13H4.75C4.81875 13 4.875 12.94 4.875 12.8667V11.8667C4.875 11.7933 4.81875 11.7333 4.75 11.7333H4.12344C3.59687 11.7333 3.10156 11.51 2.73281 11.105C2.36562 10.7017 2.17031 10.1583 2.1875 9.595C2.20156 9.155 2.34219 8.74167 2.59687 8.39333C2.85781 8.03833 3.22344 7.78 3.62969 7.665L4.22188 7.5L4.43906 6.89C4.57344 6.51 4.76094 6.155 4.99687 5.83333C5.2298 5.51451 5.50571 5.23425 5.81563 5.00167C6.45781 4.52 7.21406 4.265 8.00313 4.265C8.79219 4.265 9.54844 4.52 10.1906 5.00167C10.5016 5.235 10.7766 5.515 11.0094 5.83333C11.2453 6.155 11.4328 6.51167 11.5672 6.89L11.7828 7.49833L12.3734 7.665C13.2203 7.90833 13.8125 8.73 13.8125 9.66667C13.8125 10.2183 13.6109 10.7383 13.2453 11.1283C13.066 11.3207 12.8527 11.4732 12.6178 11.5771C12.3828 11.6809 12.1309 11.734 11.8766 11.7333H11.25C11.1812 11.7333 11.125 11.7933 11.125 11.8667V12.8667C11.125 12.94 11.1812 13 11.25 13H11.8766C13.6016 13 15 11.5083 15 9.66667C15 8.12167 14.0141 6.82167 12.6781 6.445Z" fill="#A2A6B6"/>
</svg>
