<svg width="77" height="64" viewBox="0 0 77 64" fill="none" xmlns="http://www.w3.org/2000/svg">
<path d="M76.2921 21.5132C75.8995 20.9369 75.371 20.4685 74.7543 20.1505C74.1376 19.8325 73.4522 19.6748 72.76 19.6917H17.4653C16.2986 19.7417 15.1685 20.1179 14.2009 20.7785C13.2332 21.439 12.466 22.358 11.9846 23.4331C11.9766 23.5479 11.9766 23.663 11.9846 23.7777L4.87178 49.2293V4.92294H20.6807L27.0384 13.7596C27.2651 14.0732 27.5621 14.3281 27.905 14.5035C28.248 14.6789 28.6271 14.7698 29.0114 14.7688H68.2049C68.2049 13.4632 67.6916 12.211 66.778 11.2878C65.8644 10.3645 64.6252 9.84587 63.3331 9.84587H30.2537L24.6268 2.01842C24.1733 1.39125 23.5793 0.881427 22.8935 0.530626C22.2077 0.179825 21.4494 -0.0019986 20.6807 1.65696e-05H4.87178C3.5797 1.65696e-05 2.34055 0.51868 1.42691 1.44191C0.513275 2.36514 0 3.6173 0 4.92294V60.7735C0.0380292 61.6593 0.419772 62.4944 1.06259 63.0979C1.7054 63.7014 2.55757 64.0248 3.4346 63.9981H64.1613C64.7049 64.0199 65.24 63.8573 65.6815 63.5361C66.123 63.2149 66.4453 62.7536 66.5972 62.2258L76.8036 25.0577C76.994 24.467 77.0469 23.8398 76.9582 23.225C76.8695 22.6102 76.6415 22.0244 76.2921 21.5132Z" fill="#161616"/>
</svg>
