<svg width="56" height="46" viewBox="0 0 56 46" fill="none" xmlns="http://www.w3.org/2000/svg">
<path d="M55.4851 15.4626C55.1996 15.0484 54.8153 14.7118 54.3668 14.4832C53.9183 14.2546 53.4198 14.1412 52.9164 14.1534H12.7021C11.8535 14.1893 11.0316 14.4598 10.3279 14.9345C9.62414 15.4093 9.06616 16.0698 8.71605 16.8426C8.71026 16.925 8.71026 17.0078 8.71605 17.0903L3.54311 35.3835V3.53836H15.0405L19.6643 9.88971C19.8292 10.1151 20.0452 10.2983 20.2946 10.4244C20.544 10.5505 20.8197 10.6158 21.0992 10.6151H49.6036C49.6036 9.67664 49.2303 8.77665 48.5658 8.11308C47.9013 7.44951 47.0001 7.07672 46.0605 7.07672H22.0027L17.9104 1.45074C17.5806 0.999959 17.1486 0.633525 16.6498 0.381387C16.151 0.129249 15.5996 -0.0014365 15.0405 1.19094e-05H3.54311C2.60342 1.19094e-05 1.70222 0.372801 1.03775 1.03637C0.373291 1.69994 0 2.59994 0 3.53836V43.681C0.0276576 44.3177 0.305289 44.9178 0.772791 45.3516C1.24029 45.7854 1.86005 46.0178 2.49789 45.9986H46.6628C47.0581 46.0143 47.4473 45.8974 47.7684 45.6666C48.0894 45.4357 48.3239 45.1042 48.4343 44.7248L55.8572 18.0102C55.9956 17.5856 56.0341 17.1348 55.9696 16.693C55.9051 16.2511 55.7393 15.83 55.4851 15.4626Z" fill="#3361FF"/>
</svg>
