<svg width="13" height="17" viewBox="0 0 13 17" fill="none" xmlns="http://www.w3.org/2000/svg">
<path d="M12.4091 0H0.590909C0.264062 0 0 0.271317 0 0.607143V4.85714H13V0.607143C13 0.271317 12.7359 0 12.4091 0ZM2.36364 3.1875C1.95554 3.1875 1.625 2.84788 1.625 2.42857C1.625 2.00926 1.95554 1.66964 2.36364 1.66964C2.77173 1.66964 3.10227 2.00926 3.10227 2.42857C3.10227 2.84788 2.77173 3.1875 2.36364 3.1875ZM0 16.3929C0 16.7287 0.264062 17 0.590909 17H12.4091C12.7359 17 13 16.7287 13 16.3929V12.1429H0V16.3929ZM2.36364 13.8125C2.77173 13.8125 3.10227 14.1521 3.10227 14.5714C3.10227 14.9907 2.77173 15.3304 2.36364 15.3304C1.95554 15.3304 1.625 14.9907 1.625 14.5714C1.625 14.1521 1.95554 13.8125 2.36364 13.8125ZM0 10.9286H13V6.07143H0V10.9286ZM2.36364 7.74107C2.77173 7.74107 3.10227 8.08069 3.10227 8.5C3.10227 8.91931 2.77173 9.25893 2.36364 9.25893C1.95554 9.25893 1.625 8.91931 1.625 8.5C1.625 8.08069 1.95554 7.74107 2.36364 7.74107Z" fill="#A2A6B6"/>
</svg>
