<svg width="21" height="21" viewBox="0 0 21 21" fill="none" xmlns="http://www.w3.org/2000/svg">
<path d="M10 1C5.02991 1 1 5.02991 1 10C1 14.9701 5.02991 19 10 19C14.9701 19 19 14.9701 19 10C19 5.02991 14.9701 1 10 1ZM10 17.4732C5.87366 17.4732 2.52679 14.1263 2.52679 10C2.52679 5.87366 5.87366 2.52679 10 2.52679C14.1263 2.52679 17.4732 5.87366 17.4732 10C17.4732 14.1263 14.1263 17.4732 10 17.4732Z" fill="#A2A6B6"/>
<path d="M9 5.96429C9 6.22003 9.10536 6.4653 9.29289 6.64614C9.48043 6.82698 9.73478 6.92857 10 6.92857C10.2652 6.92857 10.5196 6.82698 10.7071 6.64614C10.8946 6.4653 11 6.22003 11 5.96429C11 5.70854 10.8946 5.46327 10.7071 5.28243C10.5196 5.10159 10.2652 5 10 5C9.73478 5 9.48043 5.10159 9.29289 5.28243C9.10536 5.46327 9 5.70854 9 5.96429ZM10.5 8.21429H9.5C9.40833 8.21429 9.33333 8.28661 9.33333 8.375V14.9116C9.33333 15 9.40833 15.0723 9.5 15.0723H10.5C10.5917 15.0723 10.6667 15 10.6667 14.9116V8.375C10.6667 8.28661 10.5917 8.21429 10.5 8.21429Z" fill="#A2A6B6"/>
</svg>
