<svg width="13" height="13" viewBox="0 0 13 13" fill="none" xmlns="http://www.w3.org/2000/svg">
<path d="M12.5759 6.84311C12.8489 6.49291 13 6.06383 13 5.61741C13 4.90912 12.5921 4.23869 11.9356 3.86483C11.7666 3.7686 11.5742 3.71795 11.3783 3.71813H7.4815L7.579 1.77941C7.60175 1.3109 7.43113 0.866047 7.09963 0.526889C6.93694 0.359721 6.74067 0.226716 6.52294 0.136093C6.30521 0.0454706 6.07065 -0.000843971 5.83375 1.1642e-05C4.98875 1.1642e-05 4.24125 0.552129 4.017 1.34244L2.62112 6.2484H0.52C0.232375 6.2484 0 6.47398 0 6.75319V12.4952C0 12.7744 0.232375 13 0.52 13H10.2911C10.4406 13 10.5869 12.9716 10.7217 12.9148C11.4952 12.5946 11.9941 11.8611 11.9941 11.0471C11.9941 10.8483 11.9649 10.6527 11.9064 10.4634C12.1794 10.1132 12.3305 9.68414 12.3305 9.23772C12.3305 9.03896 12.3012 8.84335 12.2428 8.65405C12.5157 8.30385 12.6669 7.87478 12.6669 7.42835C12.6636 7.22959 12.6344 7.0324 12.5759 6.84311ZM1.17 11.8642V7.38418H2.48625V11.8642H1.17ZM11.5115 6.29572L11.1556 6.59544L11.3815 6.99612C11.4559 7.12811 11.4945 7.27631 11.4936 7.42677C11.4936 7.68706 11.3766 7.93472 11.1751 8.10509L10.8192 8.40481L11.0451 8.80549C11.1195 8.93748 11.1581 9.08568 11.1572 9.23614C11.1572 9.49642 11.0402 9.74409 10.8387 9.91446L10.4829 10.2142L10.7087 10.6149C10.7832 10.7468 10.8218 10.895 10.8209 11.0455C10.8209 11.3989 10.6064 11.7175 10.2749 11.8626H3.52625V7.3337L5.14312 1.6469C5.18482 1.50114 5.27432 1.37255 5.39806 1.2806C5.5218 1.18866 5.67305 1.13838 5.82888 1.13737C5.95237 1.13737 6.07425 1.17208 6.17175 1.24306C6.33262 1.3598 6.41875 1.53647 6.409 1.72419L6.253 4.85391H11.362C11.6512 5.02585 11.83 5.31611 11.83 5.61741C11.83 5.87769 11.713 6.12378 11.5115 6.29572Z" fill="#A2A6B6"/>
</svg>
