<svg width="18" height="18" viewBox="0 0 18 18" fill="none" xmlns="http://www.w3.org/2000/svg">
<path d="M12.75 15H4.5C4.10218 15 3.72064 14.842 3.43934 14.5607C3.15804 14.2794 3 13.8978 3 13.5V5.25C3 4.85218 3.15804 4.47064 3.43934 4.18934C3.72064 3.90804 4.10218 3.75 4.5 3.75H7.5V5.25H4.5V13.5H12.75V10.5H14.25V13.5C14.25 13.8978 14.092 14.2794 13.8107 14.5607C13.5294 14.842 13.1478 15 12.75 15ZM8.775 10.2802L7.7175 9.21975L12.4373 4.5H9.75V3H15V8.25H13.5V5.56125L8.775 10.2802Z" fill="#3361FF"/>
</svg>
