<svg width="24" height="24" viewBox="0 0 24 24" fill="none" xmlns="http://www.w3.org/2000/svg">
<path d="M22 9V21C22 21.5304 21.7893 22.0391 21.4142 22.4142C21.0391 22.7893 20.5304 23 20 23H4C3.46957 23 2.96086 22.7893 2.58579 22.4142C2.21071 22.0391 2 21.5304 2 21V9C2 8.46957 2.21071 7.96086 2.58579 7.58579C2.96086 7.21071 3.46957 7 4 7L20 7C20.5304 7 21.0391 7.21071 21.4142 7.58579C21.7893 7.96086 22 8.46957 22 9ZM10.5 15.75C10.5 18.5 12.53 19.24 13.6 19.43C13.89 20.34 14.74 21 15.75 21C17 21 18 20 18 18.75C18 17.5 17 16.5 15.75 16.5C14.81 16.5 14 17.07 13.67 17.89C13 17.67 12 17 12 15C12 13.62 11.65 12.66 11.16 12H15.13C15.44 12.87 16.27 13.5 17.25 13.5C18.5 13.5 19.5 12.5 19.5 11.25C19.5 10 18.5 9 17.25 9C16.27 9 15.44 9.63 15.13 10.5H8.87C8.56 9.63 7.73 9 6.75 9C5.5 9 4.5 10 4.5 11.25C4.5 12.5 5.5 13.5 6.75 13.5C7.68 13.5 8.5 12.94 8.82 12.13C9.5 12.41 10.5 13.23 10.5 15.75ZM7.5 11.25C7.5 11.4489 7.42098 11.6397 7.28033 11.7803C7.13968 11.921 6.94891 12 6.75 12C6.55109 12 6.36032 11.921 6.21967 11.7803C6.07902 11.6397 6 11.4489 6 11.25C6 11.0511 6.07902 10.8603 6.21967 10.7197C6.36032 10.579 6.55109 10.5 6.75 10.5C6.94891 10.5 7.13968 10.579 7.28033 10.7197C7.42098 10.8603 7.5 11.0511 7.5 11.25ZM18 11.25C18 11.4489 17.921 11.6397 17.7803 11.7803C17.6397 11.921 17.4489 12 17.25 12C17.0511 12 16.8603 11.921 16.7197 11.7803C16.579 11.6397 16.5 11.4489 16.5 11.25C16.5 11.0511 16.579 10.8603 16.7197 10.7197C16.8603 10.579 17.0511 10.5 17.25 10.5C17.4489 10.5 17.6397 10.579 17.7803 10.7197C17.921 10.8603 18 11.0511 18 11.25ZM16.5 18.75C16.5 18.9489 16.421 19.1397 16.2803 19.2803C16.1397 19.421 15.9489 19.5 15.75 19.5C15.5511 19.5 15.3603 19.421 15.2197 19.2803C15.079 19.1397 15 18.9489 15 18.75C15 18.5511 15.079 18.3603 15.2197 18.2197C15.3603 18.079 15.5511 18 15.75 18C15.9489 18 16.1397 18.079 16.2803 18.2197C16.421 18.3603 16.5 18.5511 16.5 18.75Z" fill="#161616"/>
<rect x="2" y="1" width="20" height="4" rx="2" fill="#161616"/>
</svg>
